<?xml version="1.0" standalone="no"?>
<!DOCTYPE svg PUBLIC "-//W3C//DTD SVG 20010904//EN"
 "http://www.w3.org/TR/2001/REC-SVG-20010904/DTD/svg10.dtd">
<svg version="1.0" xmlns="http://www.w3.org/2000/svg"
 width="600.000000pt" height="600.000000pt" viewBox="0 0 600.000000 600.000000"
 preserveAspectRatio="xMidYMid meet">

<g transform="translate(0.000000,600.000000) scale(0.100000,-0.100000)"
fill="#000000" stroke="none">
<path d="M2984 5850 c-148 -22 -281 -101 -371 -223 -76 -103 -205 -399 -254
-587 -17 -63 -46 -143 -65 -177 -27 -48 -34 -73 -34 -115 0 -29 -4 -79 -9
-110 -6 -33 -6 -82 -1 -118 11 -75 5 -91 -58 -172 -68 -89 -78 -117 -82 -244
0 -6 -20 -25 -45 -43 -70 -50 -103 -132 -72 -176 19 -24 50 -15 110 31 53 41
67 39 48 -9 -26 -66 -26 -70 0 -64 13 3 34 9 47 12 19 6 22 4 22 -21 0 -40
-30 -88 -159 -254 -62 -80 -187 -255 -277 -390 -114 -170 -212 -302 -320 -430
-163 -193 -194 -242 -237 -375 -46 -138 -58 -213 -64 -390 -8 -261 45 -915
107 -1305 11 -75 16 -143 13 -196 -6 -97 2 -118 81 -192 93 -88 169 -110 190
-55 8 19 -33 63 -58 63 -17 0 -102 90 -110 118 -10 29 11 90 34 102 30 16 53
12 116 -20 65 -33 84 -36 102 -18 22 22 13 49 -43 126 -91 124 -63 144 70 49
142 -100 214 -142 226 -130 17 17 -13 62 -88 132 l-68 64 28 8 c32 9 59 1 221
-60 120 -45 368 -110 519 -136 l98 -16 28 24 c16 13 72 45 124 70 101 49 115
64 148 152 16 44 40 75 113 148 98 98 261 289 316 372 19 28 53 73 76 102 77
96 160 258 188 368 29 116 88 397 84 400 -2 1 -28 14 -58 29 -56 27 -185 129
-202 160 -18 32 19 27 108 -16 80 -38 98 -43 177 -46 60 -3 87 -1 87 7 0 16
-8 18 -140 40 -138 23 -277 77 -315 123 -14 17 -24 36 -22 42 7 19 106 9 197
-19 68 -22 267 -75 277 -75 2 0 3 7 3 15 0 19 -32 32 -145 56 -213 46 -351 82
-364 95 -20 18 0 41 47 54 42 11 262 -11 357 -37 33 -9 77 -18 98 -21 34 -4
38 -2 35 14 -2 12 -13 20 -28 22 -14 1 -62 12 -108 23 -55 13 -138 23 -241 27
-165 8 -191 15 -191 53 0 11 10 23 23 28 40 15 258 33 310 26 l50 -7 -21 27
c-34 42 -25 125 13 125 9 0 43 -29 78 -64 l62 -63 90 -17 c132 -24 156 -32
224 -76 63 -41 71 -39 46 10 -19 36 -98 75 -185 91 -113 21 -136 28 -178 59
l-42 30 0 396 c0 379 5 445 30 429 4 -3 6 -67 3 -143 -5 -157 0 -159 47 -14
33 101 36 144 18 222 -10 43 -9 53 4 66 19 20 54 11 69 -18 6 -11 20 -52 30
-91 25 -89 67 -179 82 -174 6 2 16 44 23 93 11 93 26 134 47 134 24 0 132 -70
164 -106 47 -53 58 -111 57 -324 -1 -212 -17 -351 -69 -579 -32 -145 -33 -155
-17 -168 35 -26 60 -26 93 1 77 65 121 68 214 17 45 -25 53 -27 80 -15 37 16
114 18 152 3 38 -14 263 -244 310 -316 20 -32 39 -60 41 -63 7 -10 22 27 22
56 0 33 -57 110 -194 263 -32 36 -81 98 -108 136 -44 61 -220 406 -336 656
-24 53 -60 108 -91 143 l-51 56 0 73 c0 69 -2 75 -32 104 -18 17 -72 58 -119
91 -47 32 -121 87 -163 121 -43 33 -81 61 -86 61 -5 0 -16 -13 -25 -30 -10
-20 -28 -33 -56 -41 -35 -11 -44 -20 -64 -64 -25 -58 -62 -92 -110 -101 -52
-9 -72 2 -91 52 -28 73 -69 82 -162 35 -143 -71 -425 -150 -567 -156 -92 -5
-120 -18 -65 -30 107 -24 474 55 632 136 71 36 113 15 61 -31 -57 -51 -330
-146 -490 -171 -150 -23 -336 9 -551 92 -107 42 -131 63 -108 94 12 17 17 16
87 -18 53 -25 76 -32 81 -24 5 7 -1 18 -15 27 -34 22 -97 86 -97 99 0 6 15 28
34 48 18 21 45 61 59 89 28 55 43 66 76 57 20 -5 21 -3 14 58 -8 72 -8 94 -5
267 2 115 4 124 22 129 24 6 24 6 1 68 -10 28 -21 71 -25 96 -6 42 -9 46 -31
41 -50 -9 -82 45 -65 109 10 35 12 38 31 26 26 -16 41 6 28 40 -5 14 -9 29 -9
34 0 17 29 9 40 -12 7 -11 14 -19 16 -16 3 3 6 48 8 100 2 94 2 97 60 213 32
65 67 144 78 177 38 116 72 143 207 163 53 8 119 21 146 28 111 31 122 30 158
-7 25 -26 48 -38 102 -51 39 -9 80 -24 93 -32 30 -20 77 -94 97 -155 9 -26 23
-53 31 -59 19 -16 18 -100 -1 -147 -8 -19 -15 -53 -15 -75 0 -21 -9 -66 -21
-100 -11 -34 -24 -94 -28 -134 -10 -80 -9 -79 -62 -150 -28 -37 -43 -71 -58
-132 -11 -44 -22 -86 -26 -92 -14 -23 -37 -7 -61 43 -13 30 -34 63 -45 73 -28
25 -71 93 -65 102 3 5 1 14 -4 22 -7 12 -12 12 -28 -3 -28 -26 -60 -21 -92 14
-15 17 -33 28 -39 25 -17 -11 -13 -26 10 -34 21 -8 21 -9 -6 -26 -15 -10 -50
-20 -78 -22 -43 -4 -56 -11 -79 -37 -15 -18 -27 -36 -28 -40 0 -5 -12 -33 -26
-62 -14 -30 -23 -59 -20 -64 4 -5 2 -12 -3 -15 -14 -9 -22 39 -15 84 9 55 -27
51 -37 -4 -2 -11 -9 -21 -15 -23 -18 -6 -23 31 -11 80 10 47 5 77 -13 77 -18
0 -27 -42 -33 -154 -5 -101 -4 -109 14 -113 12 -3 19 -14 19 -28 0 -16 9 -26
29 -35 18 -7 34 -24 40 -41 7 -19 17 -29 30 -29 17 0 21 -6 21 -35 0 -28 5
-37 24 -44 13 -5 26 -16 29 -24 7 -19 98 -17 121 2 13 11 17 9 27 -13 13 -28
28 -33 46 -15 9 9 14 5 19 -15 9 -39 35 -32 86 22 25 26 66 65 91 87 25 22 49
51 52 65 4 13 21 40 39 60 25 28 37 56 54 126 24 106 71 212 83 192 22 -33 2
-92 -26 -82 -15 6 -28 -28 -50 -135 -10 -48 -25 -88 -43 -110 -23 -31 -27 -45
-27 -103 0 -53 5 -72 23 -97 12 -17 22 -38 22 -48 0 -22 26 -61 57 -86 13 -10
23 -27 23 -37 0 -29 43 -53 85 -48 29 3 35 1 35 -14 0 -19 28 -52 51 -60 12
-4 12 -8 1 -20 -19 -24 1 -31 48 -17 56 17 92 61 88 108 -2 28 1 36 17 41 42
11 103 50 107 68 7 26 -16 78 -42 94 -12 7 -32 33 -45 58 -13 25 -37 62 -54
84 -38 47 -38 61 -6 108 34 50 32 86 -12 182 -41 88 -44 123 -29 276 7 65 5
82 -13 128 -25 63 -27 112 -5 176 33 97 0 227 -121 471 -75 152 -207 252 -346
261 -35 2 -82 8 -104 14 -45 11 -68 11 -141 0z m149 -52 c44 -17 32 -25 -45
-30 -77 -5 -138 -29 -172 -67 -23 -25 -23 -25 51 -6 65 17 189 20 198 5 4 -6
-13 -10 -44 -10 -64 0 -203 -32 -281 -65 -67 -28 -70 -29 -70 -16 0 16 122
150 155 171 62 38 139 45 208 18z m155 -22 c29 -8 75 -29 102 -46 49 -32 115
-98 107 -107 -3 -2 -23 1 -46 8 -29 8 -48 9 -63 2 -21 -9 -18 -12 32 -26 91
-27 149 -86 164 -168 4 -21 16 -49 27 -63 15 -19 17 -26 6 -26 -23 0 -48 35
-58 82 -22 96 -54 115 -251 143 -40 6 -43 11 -65 105 -8 36 -17 75 -20 88 -6
26 -4 26 65 8z m-468 -32 c0 -4 -43 -49 -97 -100 -53 -52 -94 -97 -91 -100 4
-3 21 2 38 11 39 20 140 33 140 17 0 -6 -29 -20 -65 -32 -64 -21 -168 -99
-154 -115 4 -3 32 8 63 25 58 33 100 38 50 6 -47 -30 -85 -69 -105 -108 -11
-21 -16 -38 -12 -38 4 0 27 19 50 42 77 76 44 10 -38 -77 -21 -22 -52 -69 -69
-104 -34 -70 -134 -211 -150 -211 -6 0 -10 9 -10 19 0 17 86 242 168 441 53
127 154 257 242 309 39 23 40 24 40 15z m359 -93 c9 -6 0 -11 -30 -16 -24 -4
-80 -18 -123 -31 -44 -13 -102 -24 -130 -24 l-51 1 48 25 c26 13 71 31 100 39
59 16 165 19 186 6z m436 -339 c68 -24 80 -50 60 -126 -16 -60 -64 -162 -64
-136 -1 8 6 40 14 70 8 30 15 73 15 95 0 35 -5 45 -42 77 -24 21 -41 38 -38
38 3 0 28 -8 55 -18z m-1079 -248 c-14 -38 -41 -106 -61 -151 -26 -59 -39
-106 -46 -168 -5 -48 -14 -97 -20 -109 -33 -63 -101 -98 -116 -59 -3 9 1 44
10 79 9 34 17 81 17 104 0 54 10 72 90 155 47 49 78 93 104 149 20 43 39 76
41 74 3 -3 -6 -36 -19 -74z m1098 -317 c28 -92 14 -99 -23 -12 -30 71 -33 87
-28 143 9 94 21 97 28 7 4 -44 14 -106 23 -138z m-24 -106 c5 -11 10 -35 10
-53 1 -18 7 -44 15 -58 14 -24 14 -24 16 25 1 43 2 46 8 20 5 -16 23 -58 41
-93 32 -60 33 -65 22 -113 -19 -79 -60 -130 -141 -173 -64 -33 -82 -49 -119
-102 -11 -16 -12 -12 -8 29 5 59 31 90 94 111 57 20 82 42 82 73 l0 24 -26
-28 c-19 -21 -24 -23 -18 -8 20 54 16 103 -16 174 -17 39 -33 95 -36 124 l-6
52 31 -52 c34 -57 46 -68 31 -27 -13 33 -13 94 0 94 5 0 14 -9 20 -19z m-560
-5 c0 -13 -83 -58 -99 -53 -11 3 -25 -1 -32 -9 -6 -8 -17 -14 -24 -14 -6 0
-17 -11 -23 -25 -11 -24 -10 -25 7 -15 34 18 55 11 92 -30 28 -30 44 -40 67
-40 17 0 43 -5 57 -12 22 -10 30 -8 56 11 28 21 32 22 55 7 21 -15 24 -15 24
-1 0 8 7 15 15 15 20 0 19 -34 0 -50 -12 -10 -19 -10 -27 -2 -18 18 -24 14
-23 -15 0 -24 -5 -29 -35 -33 -33 -5 -35 -7 -38 -49 -3 -39 -2 -43 12 -32 13
11 16 11 16 -3 0 -14 4 -15 21 -6 45 25 64 -10 29 -51 -20 -24 -20 -24 -36 -4
-16 20 -16 20 -27 1 -19 -31 -79 -96 -88 -96 -5 0 -9 12 -9 26 0 23 -2 25 -16
13 -13 -11 -15 -7 -12 36 4 58 23 70 36 23 l9 -33 13 28 c7 15 17 27 21 27 11
0 20 31 14 51 -8 24 -22 25 -27 2 -3 -14 -12 -17 -51 -14 l-47 3 0 -41 c0 -22
-7 -46 -15 -55 -13 -13 -19 -13 -42 -1 -24 13 -29 12 -44 -1 -28 -25 -41 -8
-33 41 8 56 -2 72 -26 43 l-18 -23 -16 40 c-13 30 -15 48 -7 75 7 28 9 30 10
11 1 -35 13 -18 22 32 7 35 7 30 5 -24 -3 -61 -2 -66 15 -62 28 8 29 13 13 73
-16 64 -13 80 17 80 21 0 21 1 6 18 -17 19 -17 49 0 60 5 4 15 17 21 29 8 14
18 20 31 16 10 -3 22 0 26 7 5 8 11 8 21 -1 12 -10 19 -8 37 9 18 19 47 30 47
18z m98 -67 c14 -17 29 -26 38 -22 21 8 44 -16 44 -46 l-1 -26 -17 28 c-17 27
-32 35 -32 17 0 -17 -26 -11 -45 10 -12 14 -25 18 -42 14 -15 -4 -31 0 -43 11
-16 14 -24 15 -51 6 -40 -14 -59 -14 -59 -1 0 6 8 10 18 10 9 0 35 7 57 14 22
8 50 12 63 9 18 -4 22 -1 23 18 0 23 1 23 12 5 7 -10 22 -31 35 -47z m32 40
c7 -11 9 -23 6 -26 -8 -9 -36 17 -36 33 0 21 18 17 30 -7z m-756 -87 c-15 -26
-47 -73 -71 -104 -58 -76 -35 -74 40 3 59 60 60 61 53 28 -9 -47 -60 -122
-118 -174 -28 -25 -49 -48 -46 -50 8 -9 85 36 116 68 17 17 45 57 61 87 l31
55 0 -38 c0 -40 -28 -104 -54 -126 -9 -8 -16 -26 -16 -41 0 -36 -32 -76 -81
-100 -55 -28 -71 -27 -59 6 6 14 10 30 10 37 0 21 -62 -49 -88 -100 -30 -57
-141 -163 -172 -163 -26 0 -26 35 0 77 13 22 32 36 61 44 57 18 71 41 60 109
-12 78 6 130 66 189 26 26 66 74 88 107 54 81 139 170 143 149 2 -8 -9 -37
-24 -63z m676 -25 c17 3 31 -1 39 -11 20 -24 -14 -33 -49 -12 -16 9 -41 16
-58 16 -16 0 -35 6 -41 13 -19 23 -1 26 42 7 23 -11 53 -16 67 -13z m419 -91
c28 -56 27 -113 -1 -143 -12 -13 -27 -23 -34 -23 -7 0 -26 -17 -43 -37 -23
-27 -31 -33 -31 -20 0 24 17 56 47 89 30 31 39 93 25 156 -8 36 -8 41 3 32 8
-7 23 -31 34 -54z m-764 -26 c-4 -17 -11 -28 -16 -24 -10 6 -12 45 -3 69 6 16
8 16 16 1 5 -9 6 -30 3 -46z m498 -13 c2 -7 1 -30 -3 -52 -7 -36 -8 -37 -9
-10 -1 17 -5 37 -10 45 -10 15 -6 30 9 30 4 0 10 -6 13 -13z m41 -33 c7 -19
-1 -54 -14 -54 -12 0 -19 26 -13 49 6 25 18 27 27 5z m396 -155 c0 -23 -10
-42 -41 -72 -52 -52 -59 -67 -59 -117 0 -46 -19 -52 -31 -9 -4 13 -8 17 -9 9
-4 -26 1 -44 18 -64 16 -18 16 -18 -5 -7 -30 15 -37 30 -35 66 2 23 0 26 -8
15 -5 -8 -10 -28 -10 -45 l-1 -30 -10 25 c-13 31 5 135 31 177 16 27 120 83
120 65 0 -4 -19 -24 -42 -44 -24 -20 -41 -39 -38 -41 9 -9 102 64 107 84 8 28
13 23 13 -12z m-1210 -35 c0 -23 -49 -84 -86 -108 -45 -29 -56 -46 -28 -46 29
0 10 -35 -30 -53 -35 -16 -37 -20 -23 -35 33 -38 27 -102 -11 -117 -22 -8 -27
2 -13 29 21 39 11 61 -32 64 -110 9 -41 126 131 217 29 16 57 34 63 42 12 13
29 18 29 7z m1309 -93 c31 -29 40 -64 21 -76 -6 -4 -20 5 -31 19 -12 15 -31
26 -44 26 -36 0 -40 -19 -5 -26 45 -10 46 -22 3 -40 -35 -15 -36 -17 -17 -25
28 -10 35 -21 24 -39 -7 -11 -14 -12 -35 -2 -32 15 -35 15 -35 -1 0 -7 9 -18
20 -25 24 -15 26 -38 4 -46 -9 -3 -12 -2 -9 4 4 6 -10 17 -29 25 -41 17 -48
48 -16 65 24 13 26 30 5 30 -20 0 -19 12 6 44 27 34 13 33 -24 -1 l-30 -28 7
30 c4 17 22 45 41 63 47 43 99 45 144 3z m-1569 -380 c5 -11 10 -35 10 -55 0
-19 5 -38 11 -42 15 -9 4 -59 -21 -94 -20 -28 -42 -106 -41 -145 0 -11 3 -50
7 -87 5 -54 10 -69 25 -73 45 -15 65 -69 35 -95 -12 -9 -24 -6 -60 15 -35 20
-66 29 -133 35 -70 6 -90 12 -104 28 -20 25 -39 12 -39 -27 0 -26 0 -26 94
-27 112 0 131 -10 182 -90 23 -35 41 -54 54 -54 11 0 20 6 20 13 2 58 24 166
45 220 32 78 62 110 101 105 27 -3 29 -6 26 -38 -2 -19 -19 -98 -38 -175 -20
-77 -42 -197 -50 -267 -17 -150 -32 -194 -83 -240 -21 -18 -50 -56 -66 -83
-15 -28 -46 -71 -67 -97 -37 -46 -38 -49 -28 -90 13 -53 47 -283 60 -399 21
-187 14 -371 -21 -584 -46 -274 -75 -347 -155 -385 -113 -55 -248 16 -325 170
-22 42 -34 59 -37 47 -5 -25 24 -107 58 -161 17 -26 30 -53 30 -60 0 -16 -67
-37 -141 -43 -155 -15 -274 100 -316 303 -14 70 -14 74 16 195 17 67 31 139
31 159 0 19 -12 85 -26 145 -49 213 -41 512 18 617 27 48 38 48 38 1 1 -21 7
-51 14 -68 l13 -30 12 36 c6 20 20 44 30 53 17 16 19 16 25 1 3 -9 6 -44 6
-78 0 -111 30 -110 44 1 9 73 39 147 87 222 22 34 38 64 35 67 -8 9 -64 -26
-86 -54 l-21 -28 5 43 c5 31 3 42 -7 42 -15 0 -49 -34 -66 -67 -6 -13 -21 -23
-32 -23 -18 0 -20 4 -13 45 5 36 3 45 -9 45 -8 0 -21 -10 -29 -22 -20 -30 -30
-2 -13 38 9 23 29 38 78 62 56 27 70 38 92 79 14 26 54 83 90 126 l65 77 20
-40 c11 -21 45 -64 75 -94 51 -50 55 -58 55 -101 0 -52 -19 -76 -114 -143 -54
-38 -86 -95 -86 -152 0 -24 14 -76 34 -123 92 -224 193 -555 271 -889 20 -87
41 -161 47 -164 54 -33 97 267 102 706 2 151 0 307 -3 345 l-6 70 -55 -89
c-95 -153 -161 -236 -186 -236 -47 0 -70 58 -105 257 -9 55 -9 82 -1 110 11
38 122 216 142 228 19 12 11 110 -15 178 -37 99 -41 151 -16 221 11 32 32 73
46 91 14 19 25 47 25 65 0 41 23 94 54 125 13 13 37 52 52 85 17 39 46 78 81
111 55 52 71 86 90 189 10 59 42 80 63 41z m340 -381 c147 -158 192 -199 155
-144 -18 27 -105 177 -126 216 -20 37 1 14 82 -87 45 -57 85 -103 87 -101 2 2
-11 32 -28 66 -49 98 -129 270 -125 270 2 0 28 -35 58 -77 29 -43 77 -111 105
-152 29 -41 52 -70 52 -65 0 5 -13 51 -29 102 -16 50 -28 92 -26 92 1 0 26
-40 54 -90 29 -49 54 -90 56 -90 1 0 -8 50 -21 112 -13 61 -23 112 -21 114 1
1 20 -41 42 -94 l40 -97 2 65 c2 36 6 81 9 100 6 32 9 28 29 -55 l21 -90 24
97 c13 54 26 95 29 92 3 -3 8 -47 11 -97 l5 -92 50 97 c27 53 51 95 53 93 2
-2 -13 -58 -33 -125 -20 -67 -34 -124 -32 -126 2 -2 34 50 71 116 38 66 70
120 73 120 2 0 2 -3 0 -7 -11 -17 -87 -216 -84 -219 1 -2 51 64 111 147 59 82
110 149 113 149 2 0 2 -3 0 -7 -3 -5 -40 -66 -84 -138 -129 -211 -130 -211 97
45 142 161 142 162 -34 -100 -62 -91 -116 -172 -121 -180 -12 -19 98 75 150
130 46 48 166 152 149 130 -20 -26 -189 -264 -214 -300 -19 -28 -20 -32 -4
-19 115 94 264 216 284 233 23 20 24 20 9 1 -8 -11 -64 -76 -125 -145 -139
-160 -213 -248 -194 -234 18 14 299 223 320 238 8 6 -53 -61 -137 -149 -83
-88 -150 -161 -149 -162 1 -2 58 20 127 48 173 70 169 69 169 65 0 -2 -55 -39
-122 -82 -68 -42 -127 -81 -133 -86 -5 -4 37 7 93 26 56 19 102 31 102 27 0
-19 -122 -66 -210 -80 -88 -15 -95 -18 -110 -46 -23 -45 -89 -108 -107 -101
-21 8 -11 29 20 44 28 13 36 32 15 32 -6 0 -20 7 -30 16 -19 18 -23 14 -30
-31 -2 -12 -12 -21 -27 -23 -13 -2 -32 -14 -42 -25 -15 -18 -20 -19 -28 -8 -6
10 -10 10 -16 1 -4 -7 -17 -9 -31 -6 -26 7 -31 -7 -14 -34 8 -12 13 -13 30 -2
11 6 30 12 44 12 13 0 29 7 36 15 15 18 29 19 53 1 18 -14 16 -18 -27 -70 -25
-31 -52 -69 -60 -85 -28 -53 -55 -50 -117 16 -50 52 -108 146 -80 128 21 -12
23 19 2 36 -21 17 -13 37 9 24 13 -8 42 14 34 26 -7 12 -51 11 -59 -2 -4 -5
-12 -8 -18 -6 -19 6 -8 79 16 105 28 30 63 28 104 -8 40 -35 46 -36 83 -10 62
44 135 31 160 -30 9 -21 19 -30 36 -30 21 0 22 2 13 29 -13 36 -45 65 -88 80
-39 13 -95 6 -112 -15 -17 -21 -50 -17 -79 11 -40 38 -80 42 -118 11 -32 -28
-58 -86 -48 -111 3 -8 0 -15 -6 -15 -9 0 -9 -3 0 -12 18 -18 14 -31 -8 -25
-13 3 -31 -3 -47 -18 l-27 -22 50 4 50 5 29 -57 c16 -31 54 -84 85 -117 46
-50 62 -60 96 -65 39 -5 43 -3 70 33 16 22 52 67 81 102 29 35 53 66 53 70 0
10 61 33 71 26 5 -2 3 -16 -3 -29 -9 -19 -8 -31 2 -52 8 -16 15 -39 16 -53 2
-14 22 -43 49 -68 57 -54 62 -87 8 -45 -42 33 -80 55 -53 31 14 -12 166 -180
234 -258 l31 -35 -35 31 c-19 16 -73 64 -120 105 -47 41 -94 81 -105 89 -19
15 -19 14 -4 -10 69 -108 238 -392 226 -380 -8 8 -56 69 -108 135 -51 66 -106
135 -122 154 -26 30 -28 31 -22 10 4 -13 16 -40 25 -59 15 -29 63 -143 185
-435 28 -67 1 -27 -85 125 -107 191 -204 357 -211 364 -5 5 89 -463 135 -673
9 -41 15 -76 13 -78 -4 -3 -118 338 -207 620 -17 55 -33 97 -35 95 -2 -1 14
-169 36 -373 21 -203 38 -383 38 -400 -1 -16 -32 119 -69 300 -37 182 -69 328
-70 325 -2 -3 -18 -212 -36 -465 l-33 -460 3 528 c2 290 1 526 -1 524 -2 -2
-53 -244 -113 -538 -61 -294 -114 -550 -119 -569 -15 -57 -12 -1 3 91 15 86
136 939 136 955 0 12 -122 -216 -343 -643 -100 -193 -183 -350 -184 -349 -2 1
65 158 148 347 83 189 164 373 179 409 15 36 41 94 58 130 73 156 109 241 94
225 -13 -15 -190 -272 -386 -562 -98 -145 -180 -263 -183 -263 -2 0 4 15 15
33 37 60 383 659 400 692 7 13 -68 -55 -248 -226 -172 -162 -167 -158 -154
-139 6 8 103 130 216 270 112 141 208 262 213 270 5 8 -18 -6 -50 -33 -423
-337 -435 -342 -176 -82 83 82 149 151 147 152 -2 2 -78 -24 -171 -57 -92 -33
-169 -59 -171 -57 -2 1 23 18 54 37 125 74 323 202 319 206 -2 3 -78 -11 -168
-30 -90 -19 -165 -33 -167 -31 -2 1 69 33 157 71 88 37 159 69 158 70 -1 1
-58 -4 -127 -12 -170 -19 -172 -17 -36 22 65 18 121 36 123 38 2 2 -29 9 -69
16 -127 20 -143 28 -63 30 39 1 92 5 119 8 l50 7 -107 34 c-96 31 -124 49 -99
65 4 2 58 -6 120 -19 61 -12 112 -21 112 -19 0 2 -50 29 -111 60 -101 51 -131
75 -116 90 3 3 53 -15 111 -40 58 -25 108 -46 113 -46 4 0 -42 34 -102 75 -61
42 -111 79 -112 83 -2 4 1 13 5 20 6 9 36 -5 113 -56 140 -92 144 -93 69 -24
-167 153 -170 157 -161 171 7 11 35 -6 127 -74 66 -49 126 -92 134 -98 8 -5
-43 46 -113 114 -123 119 -128 125 -121 157 8 41 22 40 65 -4 50 -52 174 -162
164 -144 -5 8 -86 119 -180 245 -215 290 -233 316 -154 230 35 -38 129 -140
209 -225z m1897 -196 c77 -128 119 -334 79 -389 -22 -30 -43 -4 -68 81 -26 93
-43 96 -36 9 3 -36 3 -67 -1 -70 -15 -9 -68 34 -84 68 -41 86 4 392 56 374 6
-2 30 -35 54 -73z m-1310 -1706 c-3 -7 -5 -2 -5 12 0 14 2 19 5 13 2 -7 2 -19
0 -25z m-460 -360 c-3 -7 -5 -2 -5 12 0 14 2 19 5 13 2 -7 2 -19 0 -25z"/>
<path d="M2902 4458 c-14 -14 -16 -68 -2 -68 6 0 10 14 10 30 0 17 5 30 10 30
6 0 10 -12 9 -27 0 -31 -16 -114 -18 -98 -3 21 -21 -21 -21 -49 0 -28 1 -28
19 -12 12 11 21 14 26 7 15 -26 21 -7 11 39 -6 32 -7 59 0 77 11 31 29 28 29
-4 -1 -13 1 -23 3 -23 2 0 12 10 22 23 18 22 19 22 50 4 l31 -19 -3 34 c-3 33
-4 33 -53 34 -31 0 -61 7 -75 17 -29 20 -32 21 -48 5z"/>
<path d="M2166 3559 c-23 -28 -33 -49 -22 -49 2 0 19 18 36 40 37 47 24 55
-14 9z"/>
<path d="M2118 3373 c-25 -26 -38 -49 -40 -73 -3 -34 -4 -35 -45 -35 -23 0
-45 -3 -49 -7 -4 -5 0 -8 9 -8 9 0 50 -11 92 -24 l75 -24 -25 30 c-14 16 -25
36 -25 43 0 7 -3 20 -6 28 -3 8 3 23 14 33 27 26 56 74 45 74 -5 0 -25 -17
-45 -37z"/>
<path d="M1853 3023 c-21 -36 -27 -61 -28 -103 0 -30 3 -63 7 -73 7 -17 10
-16 32 10 24 27 24 28 45 9 21 -19 21 -19 21 8 0 38 67 96 110 96 23 0 40 -34
40 -82 0 -37 7 -64 25 -95 14 -23 29 -43 32 -43 11 0 -6 101 -26 144 -21 49
-19 49 38 20 28 -15 61 -3 61 21 0 13 -3 13 -20 3 -16 -10 -24 -9 -47 10 -46
36 -95 54 -128 47 -16 -4 -48 -7 -70 -8 l-40 -2 1 43 c1 56 -18 55 -53 -5z"/>
<path d="M1579 2683 c-8 -9 -29 -22 -47 -30 -45 -19 -30 -34 31 -32 32 2 52
-2 55 -9 14 -42 49 -48 100 -16 37 24 28 49 -31 78 -63 30 -89 33 -108 9z"/>
<path d="M2153 2596 c-25 -51 -71 -81 -109 -72 -13 4 -35 23 -48 43 -22 32
-26 34 -32 18 -4 -10 -2 -36 3 -58 10 -38 9 -43 -23 -90 -19 -27 -34 -53 -34
-58 0 -16 16 -9 41 17 13 14 51 38 85 55 95 45 162 124 145 172 -5 14 -11 8
-28 -27z"/>
<path d="M2960 3225 c0 -18 -5 -25 -20 -25 -11 0 -20 -7 -20 -15 0 -8 9 -15
20 -15 17 0 20 -7 20 -46 0 -55 17 -50 26 7 6 33 10 39 30 39 15 0 24 6 24 15
0 9 -9 15 -25 15 -20 0 -25 5 -25 25 0 16 -6 25 -15 25 -9 0 -15 -9 -15 -25z"/>
<path d="M3065 3132 c-33 -43 -44 -66 -44 -92 0 -23 1 -23 18 9 l18 34 17 -44
c14 -36 15 -51 6 -74 -22 -57 -63 -86 -60 -42 4 46 0 51 -19 21 -25 -40 -40
-50 -47 -29 -4 9 5 32 21 55 27 40 43 106 31 136 -5 14 -10 11 -25 -16 -24
-45 -36 -47 -52 -11 -7 16 -17 27 -21 25 -14 -9 -8 -48 13 -83 11 -18 19 -43
17 -55 -3 -19 -5 -18 -23 12 -10 17 -23 32 -27 32 -15 0 -8 -37 11 -61 10 -13
21 -34 25 -45 13 -43 37 -54 96 -45 42 7 60 16 82 40 26 29 28 36 26 119 -1
48 2 98 6 112 l8 25 -25 -24 -25 -23 -4 25 -3 25 -20 -26z"/>
<path d="M2852 3089 c-42 -74 -42 -109 3 -157 39 -42 45 -29 13 34 l-22 44 23
45 c12 25 21 55 19 67 -2 19 -9 13 -36 -33z"/>
<path d="M2875 2680 c-33 -52 -32 -57 10 -52 33 4 40 11 36 40 -1 9 6 11 22 7
32 -8 47 13 22 32 -34 24 -63 16 -90 -27z"/>
<path d="M3015 2699 c-10 -15 1 -22 24 -14 12 3 19 11 16 16 -8 12 -32 11 -40
-2z"/>
<path d="M2874 5250 c-44 -6 -107 -41 -87 -47 7 -3 23 3 35 11 31 22 49 20
119 -9 32 -14 81 -28 107 -32 47 -6 47 -6 29 15 -40 45 -130 72 -203 62z"/>
<path d="M2860 5159 c-28 -12 -60 -38 -60 -51 0 -5 14 2 31 14 22 16 44 23 74
22 54 -1 88 -23 115 -72 19 -33 20 -34 15 -8 -17 80 -99 125 -175 95z"/>
<path d="M2833 5111 c-18 -12 -33 -25 -33 -31 0 -13 47 -13 55 0 10 16 28 12
21 -5 -9 -23 30 -57 62 -53 21 2 26 8 25 26 -3 28 11 28 31 0 19 -27 30 -19
17 13 -24 63 -116 89 -178 50z"/>
<path d="M3335 5123 c-85 -11 -69 -24 42 -33 81 -7 88 -9 115 -39 35 -39 47
-35 23 7 -30 51 -101 76 -180 65z"/>
<path d="M3201 5008 c-11 -24 -22 -74 -25 -113 -4 -38 -9 -91 -12 -117 -4 -29
-2 -48 4 -48 5 0 13 26 16 58 4 31 10 79 13 105 6 52 27 82 51 72 8 -3 25 2
38 10 21 13 24 13 24 1 0 -22 29 -46 55 -46 26 0 46 21 27 28 -17 5 -15 22 2
22 7 0 20 -10 28 -21 8 -12 21 -20 32 -18 17 4 17 7 -8 36 -49 58 -119 65
-172 17 -14 -14 -24 -19 -22 -12 3 7 20 24 39 36 48 34 108 26 155 -19 19 -18
34 -28 34 -23 0 13 -37 47 -67 63 -12 6 -60 11 -108 11 l-86 0 -18 -42z"/>
<path d="M2910 4994 c0 -19 27 -24 60 -13 43 15 37 25 -15 24 -27 0 -45 -5
-45 -11z"/>
<path d="M3370 4910 c-34 -6 -34 -7 -11 -17 29 -11 73 -5 68 10 -4 14 -15 16
-57 7z"/>
<path d="M2575 4818 c-3 -18 -3 -42 -1 -53 3 -11 5 -24 5 -29 1 -5 7 -3 15 3
19 16 36 -14 36 -61 0 -42 -14 -67 -24 -42 -3 9 -9 15 -12 12 -2 -3 5 -31 16
-62 15 -38 19 -66 15 -87 -7 -29 7 -59 26 -59 4 0 6 40 4 89 -4 70 -2 91 10
101 19 16 19 40 0 40 -11 0 -15 11 -15 40 0 31 -5 43 -25 56 -19 12 -25 25
-25 50 0 43 -17 44 -25 2z"/>
<path d="M2736 4598 c-3 -13 -5 -34 -5 -48 1 -24 1 -24 14 5 16 35 19 65 6 65
-5 0 -11 -10 -15 -22z"/>
<path d="M2808 4613 c-33 -5 -32 -3 -15 -37 l14 -25 21 29 c23 31 27 41 15 39
-5 -1 -20 -4 -35 -6z"/>
<path d="M1844 3774 c-123 -82 -168 -127 -256 -258 -33 -50 -81 -119 -104
-152 -41 -58 -150 -298 -310 -681 -34 -84 -74 -172 -88 -195 -55 -95 -145
-380 -175 -559 -28 -165 -44 -411 -37 -584 3 -82 8 -378 12 -657 l6 -508 55 0
c54 0 55 0 49 27 -20 99 -54 662 -42 707 12 46 25 19 47 -100 23 -124 59 -261
126 -481 l46 -153 58 0 c33 0 59 2 59 4 0 2 -18 41 -39 87 -93 201 -199 602
-246 929 -17 122 -19 369 -5 508 17 154 70 432 106 555 6 18 -3 22 -24 9 -7
-5 -31 -62 -53 -128 -45 -133 -60 -160 -48 -84 13 80 35 148 95 292 105 252
139 301 304 453 185 170 271 281 490 630 62 99 137 213 166 254 58 79 65 101
34 101 -39 0 -61 -33 -380 -580 -47 -80 -124 -170 -146 -170 -18 0 -17 4 2 42
20 39 6 57 -27 34 -35 -24 -75 -90 -99 -159 -11 -34 -29 -73 -40 -87 -17 -23
-19 -23 -26 -6 -4 10 -1 50 6 88 13 76 106 273 238 508 88 155 96 166 134 186
32 17 32 14 -5 -39 -14 -21 -17 -31 -8 -40 7 -7 14 -7 19 -1 4 5 35 42 68 83
32 41 91 100 131 132 68 54 70 57 44 61 -21 3 -52 -13 -137 -68z"/>
<path d="M4340 2582 c-43 -21 -49 -45 -18 -69 62 -48 107 -105 127 -158 33
-88 40 -212 41 -683 0 -368 2 -437 15 -462 9 -17 23 -30 31 -30 14 0 15 12 10
88 -12 178 -28 690 -24 787 7 168 -6 278 -43 353 -21 43 -44 72 -70 90 -42 30
-44 41 -11 53 31 12 76 -30 114 -104 16 -33 49 -131 71 -216 41 -156 41 -156
38 -311 -8 -347 -8 -346 27 -324 33 21 43 90 43 283 -1 226 -11 292 -58 384
-20 40 -51 108 -70 152 -40 92 -72 139 -117 166 -38 23 -61 24 -106 1z"/>
<path d="M4610 2560 c-8 -5 -12 -11 -10 -13 48 -42 107 -77 130 -77 42 0 75
-37 99 -110 28 -86 60 -141 94 -160 31 -17 60 -6 65 27 4 27 -164 251 -214
285 -57 40 -139 64 -164 48z"/>
<path d="M4000 2361 c0 -9 139 -51 168 -51 28 0 20 21 -17 43 -29 17 -151 23
-151 8z"/>
<path d="M4780 2355 c0 -6 9 -36 20 -68 11 -31 20 -67 20 -80 0 -32 55 -255
89 -362 49 -151 60 -195 81 -328 23 -138 40 -199 58 -205 14 -4 15 35 2 98 -6
25 -14 140 -19 255 -5 116 -14 221 -19 235 -6 14 -27 43 -49 66 -30 32 -42 56
-57 115 -19 75 -65 185 -104 249 -12 19 -22 30 -22 25z"/>
<path d="M3930 2231 c0 -21 -34 -41 -68 -41 -20 0 -69 9 -107 20 -38 11 -83
20 -99 20 -51 0 -11 -28 78 -54 138 -42 265 -64 406 -71 75 -4 168 -16 209
-26 40 -10 77 -16 82 -14 11 8 23 71 16 90 -5 13 -11 13 -49 -1 -88 -32 -253
-7 -377 55 -61 32 -91 38 -91 22z"/>
<path d="M3733 2031 c-7 -66 -21 -133 -37 -175 -15 -38 -24 -71 -22 -73 10
-10 216 281 216 305 0 6 -8 12 -18 12 -11 0 -43 8 -73 19 l-55 19 -11 -107z"/>
<path d="M3980 2030 c0 -111 -43 -349 -96 -529 -47 -159 -97 -275 -242 -561
-221 -433 -213 -425 -632 -659 -80 -44 -152 -85 -160 -90 -10 -7 64 -10 222
-10 l237 -1 81 61 c85 64 184 170 262 279 55 79 212 342 298 500 91 169 117
187 139 93 23 -94 -12 -244 -91 -392 -73 -138 -121 -204 -230 -318 -54 -57
-98 -109 -98 -116 0 -22 36 -48 80 -58 34 -8 49 -6 78 8 30 15 39 27 51 68 13
45 33 69 199 233 102 100 192 182 199 182 8 0 13 -11 13 -27 0 -20 -38 -79
-125 -198 -141 -192 -164 -238 -145 -285 l12 -30 199 0 c131 0 200 4 205 11
11 19 7 500 -5 582 -14 87 -10 117 13 98 31 -26 66 -329 66 -567 l0 -124 102
0 102 0 -36 38 c-68 70 -73 89 -74 267 0 88 -4 176 -9 195 -4 19 -15 100 -24
180 -15 134 -18 145 -36 142 -49 -8 -218 -14 -248 -8 -24 4 -38 15 -47 34 -23
52 -70 216 -81 285 -12 78 -8 701 5 730 7 15 1 17 -55 17 -35 0 -79 4 -97 9
l-32 10 0 -49z"/>
<path d="M4253 2054 c-13 -33 7 -198 33 -273 31 -91 33 -189 8 -436 -12 -126
-14 -170 -5 -203 12 -44 26 -54 35 -24 41 137 106 648 106 839 0 42 -1 43 -57
71 -79 40 -112 47 -120 26z"/>
<path d="M3762 1668 c-124 -167 -280 -508 -232 -508 23 0 241 223 261 265 27
60 61 209 57 252 -2 30 -7 39 -25 41 -16 2 -31 -10 -61 -50z"/>
<path d="M5035 969 c-61 -78 -151 -192 -200 -253 -141 -173 -161 -202 -175
-250 -19 -69 -7 -107 50 -160 27 -25 54 -46 59 -46 19 0 40 31 47 68 19 115
44 222 58 256 16 38 17 39 34 23 14 -15 18 -43 22 -158 l5 -140 27 28 27 28
11 229 c12 252 14 262 85 346 21 25 41 54 45 65 8 22 22 105 18 105 -2 0 -53
-64 -113 -141z"/>
<path d="M3097 673 c-88 -128 -128 -153 -212 -133 -57 14 -93 10 -164 -17
l-44 -17 29 -8 c68 -18 220 -21 295 -5 41 9 99 19 129 23 30 3 84 16 120 28
53 17 66 25 68 45 7 44 -101 131 -163 131 -19 0 -33 -12 -58 -47z"/>
</g>
</svg>
